# File created by Blade
# Date/Time:  Mon Sep 29 17:58:21 2014
# Frame Rate: 120.000 fps
#------------------------------------------------------
:FULLY-SPECIFIED
:DEGREES
741
root -0.267516 11.873663 -7.849913 43.869689 5.560722 -0.352551
Spine 47.453837 7.422497 4.062452
Head 44.556320 -14.331678 -3.183237
LeftShoulder 16.955938 -20.465123 23.713520
LeftArm 37.971973 18.000627 -28.154000
LeftForeArm 62.212543 -0.000000 86.232798
LeftHand -37.524022 -0.000000 30.087855
LeftHandThumb1 -26.253704 0.000000 33.147579
RightShoulder 2.910712 35.835338 -30.800655
RightArm 21.928657 -40.507815 36.828674
RightForeArm -55.945255 -0.000000 83.364563
RightHand -7.627142 -0.000000 -28.231200
RightHandThumb1 -24.326973 -0.000000 -32.862282
LeftUpLeg -139.387918 41.420709 -12.567063
LeftLeg 130.641272 -0.000000 -0.000000
LeftFoot -30.914067 -15.911180 -20.730193
LeftToeBase 7.500741 -0.000000 -0.000000
RightUpLeg -132.777459 -36.208113 5.735844
RightLeg 133.693400 -0.000000 -0.000000
RightFoot -36.186890 0.005553 20.920128
RightToeBase 3.570379 -0.000000 -0.000000
742
root -0.268817 11.869138 -7.843025 43.841211 5.545464 -0.343470
Spine 47.481126 7.416674 4.038398
Head 44.550295 -14.271640 -3.161389
LeftShoulder 16.951255 -20.473358 23.706510
LeftArm 37.846366 18.084947 -28.165824
LeftForeArm 62.142670 -0.000000 86.364675
LeftHand -37.495368 0.000000 30.143870
LeftHandThumb1 -26.253704 0.000000 33.147579
RightShoulder 2.905241 35.913241 -30.798302
RightArm 21.866740 -40.565461 36.927445
RightForeArm -55.991174 -0.000000 83.347650
RightHand -7.631374 -0.000000 -28.221471
RightHandThumb1 -24.326973 -0.000000 -32.862282
LeftUpLeg -139.382666 41.465420 -12.599577
LeftLeg 130.664202 -0.000000 -0.000000
LeftFoot -30.890121 -15.951520 -20.723354
LeftToeBase 7.475693 -0.000000 -0.000000
RightUpLeg -132.772517 -36.235613 5.742036
RightLeg 133.722238 -0.000000 -0.000000
RightFoot -36.179142 0.042505 20.877553
RightToeBase 3.544088 -0.000000 -0.000000
743
root -0.277080 11.865775 -7.827774 43.719617 5.372233 -0.389199
Spine 47.653355 7.617301 3.876556
Head 44.458863 -14.257977 -2.903508
LeftShoulder 16.919600 -20.428851 23.817124
LeftArm 37.743814 18.081156 -28.110507
LeftForeArm 61.991612 -0.000000 86.501393
LeftHand -37.408401 -0.000000 30.186318
LeftHandThumb1 -26.253704 0.000000 33.147579
RightShoulder 2.927930 36.048851 -30.697914
RightArm 21.754493 -40.602816 37.038358
RightForeArm -56.054576 -0.000000 83.358020
RightHand -7.673994 -0.000000 -28.214809
RightHandThumb1 -24.326973 -0.000000 -32.862282
LeftUpLeg -139.308988 41.752453 -12.698516
LeftLeg 130.696444 -0.000000 -0.000000
LeftFoot -30.875091 -16.022035 -20.632859
LeftToeBase 7.396925 -0.000000 -0.000000
RightUpLeg -132.626929 -36.078156 5.591122
RightLeg 133.760910 -0.000000 -0.000000
RightFoot -36.190096 0.036898 20.874742
RightToeBase 3.489232 -0.000000 -0.000000
744
root -0.279353 11.862708 -7.815966 43.643076 5.298594 -0.391264
Spine 47.759169 7.690870 3.810036
Head 44.401365 -14.252802 -2.775616
LeftShoulder 16.913235 -20.417152 23.857404
LeftArm 37.648970 18.146965 -28.072019
LeftForeArm 61.862342 -0.000000 86.619957
LeftHand -37.403905 -0.000000 30.243919
LeftHandThumb1 -26.253704 0.000000 33.147579
RightShoulder 2.934713 36.128226 -30.651972
RightArm 21.668072 -40.628660 37.123990
RightForeArm -56.101373 0.000000 83.373792
RightHand -7.688506 -0.000000 -28.185761
RightHandThumb1 -24.326973 -0.000000 -32.862282
LeftUpLeg -139.249408 41.884025 -12.745426
LeftLeg 130.723677 -0.000000 -0.000000
LeftFoot -30.839997 -16.097121 -20.615936
LeftToeBase 7.341818 -0.000000 -0.000000
RightUpLeg -132.537107 -36.052891 5.505858
RightLeg 133.791976 -0.000000 -0.000000
RightFoot -36.186840 0.080922 20.883548
RightToeBase 3.474508 -0.000000 -0.000000
745
root -0.279075 11.858877 -7.809556 43.627019 5.267870 -0.368999
Spine 47.779117 7.708002 3.767683
Head 44.379847 -14.238893 -2.694066
LeftShoulder 16.889691 -20.385201 23.852862
LeftArm 37.619477 18.252837 -27.973380
LeftForeArm 61.790925 -0.000000 86.707011
LeftHand -37.482371 -0.000000 30.281077
LeftHandThumb1 -26.253704 0.000000 33.147579
RightShoulder 2.914833 36.193937 -30.628300
RightArm 21.625744 -40.684602 37.175862
RightForeArm -56.061129 -0.000000 83.391470
RightHand -7.672659 -0.000000 -28.186805
RightHandThumb1 -24.326973 -0.000000 -32.862282
LeftUpLeg -139.244907 41.936364 -12.796555
LeftLeg 130.745336 -0.000000 -0.000000
LeftFoot -30.804462 -16.179727 -20.621795
LeftToeBase 7.321068 -0.000000 -0.000000
RightUpLeg -132.529369 -36.064934 5.469548
RightLeg 133.817540 -0.000000 -0.000000
RightFoot -36.195931 0.081461 20.873692
RightToeBase 3.532760 -0.000000 -0.000000
746
root -0.277507 11.853732 -7.802532 43.610140 5.258481 -0.327109
Spine 47.791180 7.687731 3.727051
Head 44.365953 -14.219663 -2.611899
LeftShoulder 16.871981 -20.338714 23.849904
LeftArm 37.580593 18.325096 -27.910307
LeftForeArm 61.827908 -0.000000 86.772514
LeftHand -37.441468 -0.000000 30.338219
LeftHandThumb1 -26.253704 0.000000 33.147579
RightShoulder 2.911676 36.232551 -30.601063
RightArm 21.592068 -40.719507 37.214054
RightForeArm -56.038037 0.000000 83.427955
RightHand -7.687778 -0.000000 -28.110927
RightHandThumb1 -24.326973 -0.000000 -32.862282
LeftUpLeg -139.230054 41.953702 -12.838133
LeftLeg 130.768701 -0.000000 -0.000000
LeftFoot -30.779584 -16.221046 -20.603773
LeftToeBase 7.286492 -0.000000 -0.000000
RightUpLeg -132.529142 -36.125922 5.443858
RightLeg 133.849279 -0.000000 -0.000000
RightFoot -36.196940 0.119883 20.857675
RightToeBase 3.536422 -0.000000 -0.000000
747
root -0.270821 11.848802 -7.800855 43.654568 5.324988 -0.247372
Spine 47.712270 7.555940 3.746503
Head 44.395754 -14.182763 -2.678023
LeftShoulder 16.848531 -20.275204 23.790470
LeftArm 37.582282 18.437268 -27.834697
LeftForeArm 61.997836 0.000000 86.812262
LeftHand -37.508491 -0.000000 30.318788
LeftHandThumb1 -26.253704 0.000000 33.147579
RightShoulder 2.910640 36.242804 -30.623513
RightArm 21.568563 -40.775267 37.236956
RightForeArm -56.014587 -0.000000 83.456553
RightHand -7.701771 -0.000000 -28.104645
RightHandThumb1 -24.326973 -0.000000 -32.862282
LeftUpLeg -139.265708 41.830632 -12.870805
LeftLeg 130.790380 -0.000000 -0.000000
LeftFoot -30.769032 -16.209787 -20.595142
LeftToeBase 7.292152 -0.000000 -0.000000
RightUpLeg -132.621157 -36.294087 5.496768
RightLeg 133.876211 -0.000000 -0.000000
RightFoot -36.218415 0.250181 20.901177
RightToeBase 3.706122 -0.000000 -0.000000
748
root -0.264907 11.841653 -7.799483 43.719031 5.396210 -0.180424
Spine 47.593727 7.437098 3.784799
Head 44.469024 -14.170839 -2.741336
LeftShoulder 16.830591 -20.213681 23.703124
LeftArm 37.615748 18.589758 -27.719887
LeftForeArm 62.078380 -0.000000 86.834133
LeftHand -37.545039 -0.000000 30.285903
LeftHandThumb1 -26.253704 0.000000 33.147579
RightShoulder 2.891461 36.234636 -30.631005
RightArm 21.580778 -40.848517 37.219577
RightForeArm -55.980566 -0.000000 83.489526
RightHand -7.692055 -0.000000 -28.030260
RightHandThumb1 -24.326973 -0.000000 -32.862282
LeftUpLeg -139.339035 41.711846 -12.904847
LeftLeg 130.815194 -0.000000 -0.000000
LeftFoot -30.747035 -16.209086 -20.601747
LeftToeBase 7.257975 -0.000000 -0.000000
RightUpLeg -132.727107 -36.440365 5.557046
RightLeg 133.894947 -0.000000 -0.000000
RightFoot -36.175073 0.259463 20.819423
RightToeBase 3.565104 -0.000000 -0.000000
749
root -0.263133 11.835083 -7.793358 43.716818 5.378935 -0.140670
Spine 47.576677 7.424058 3.743515
Head 44.492134 -14.177117 -2.717389
LeftShoulder 16.790052 -20.122867 23.701966
LeftArm 37.656910 18.681941 -27.601876
LeftForeArm 62.055436 -0.000000 86.851343
LeftHand -37.605017 0.000000 30.332686
LeftHandThumb1 -26.253704 0.000000 33.147579
RightShoulder 2.880333 36.236606 -30.611377
RightArm 21.604418 -40.890740 37.213267
RightForeArm -55.978271 -0.000000 83.508084
RightHand -7.754479 0.000000 -28.033521
RightHandThumb1 -24.326973 -0.000000 -32.862282
LeftUpLeg -139.350593 41.731238 -12.958121
LeftLeg 130.846567 -0.000000 -0.000000
LeftFoot -30.700122 -16.258595 -20.610419
LeftToeBase 7.186729 -0.000000 -0.000000
RightUpLeg -132.742449 -36.487755 5.524330
RightLeg 133.925425 -0.000000 -0.000000
RightFoot -36.172680 0.266870 20.790944
RightToeBase 3.524483 -0.000000 -0.000000
750
root -0.261729 11.830731 -7.782529 43.668806 5.314461 -0.132281
Spine 47.631844 7.474207 3.688497
Head 44.473113 -14.181096 -2.625109
LeftShoulder 16.782772 -20.088207 23.689340
LeftArm 37.665104 18.807763 -27.497739
LeftForeArm 62.007149 -0.000000 86.827346
LeftHand -37.703413 -0.000000 30.673459
LeftHandThumb1 -26.253704 0.000000 33.147579
RightShoulder 2.878591 36.326291 -30.559032
RightArm 21.561668 -40.971181 37.217143
RightForeArm -55.970653 -0.000000 83.513937
RightHand -7.678895 -0.000000 -28.037006
RightHandThumb1 -24.326973 -0.000000 -32.862282
LeftUpLeg -139.320486 41.833296 -13.015919
LeftLeg 130.884614 -0.000000 -0.000000
LeftFoot -30.678660 -16.313945 -20.580907
LeftToeBase 7.113121 -0.000000 -0.000000
RightUpLeg -132.675349 -36.481727 5.436394
RightLeg 133.950851 -0.000000 -0.000000
RightFoot -36.162162 0.301320 20.758579
RightToeBase 3.455809 -0.000000 -0.000000
751
root -0.259352 11.825214 -7.771774 43.617401 5.267972 -0.118266
Spine 47.687073 7.537482 3.665483
Head 44.464473 -14.272612 -2.487970
LeftShoulder 16.790061 -20.126511 23.709343
LeftArm 37.676185 18.968758 -27.462955
LeftForeArm 62.003740 0.000000 86.760353
LeftHand -37.600059 -0.000000 30.927724
LeftHandThumb1 -26.253704 0.000000 33.147579
RightShoulder 2.807575 36.259870 -30.558041
RightArm 21.617227 -40.940068 37.213522
RightForeArm -55.996696 -0.000000 83.484488
RightHand -7.655406 0.000000 -28.035791
RightHandThumb1 -24.326973 -0.000000 -32.862282
LeftUpLeg -139.282885 41.914588 -13.055412
LeftLeg 130.929028 -0.000000 -0.000000
LeftFoot -30.657406 -16.359814 -20.554074
LeftToeBase 7.017103 -0.000000 -0.000000
RightUpLeg -132.620074 -36.502174 5.370241
RightLeg 133.979129 -0.000000 -0.000000
RightFoot -36.170412 0.356848 20.780224
RightToeBase 3.495526 -0.000000 -0.000000
752
root -0.256483 11.817727 -7.762353 43.605811 5.228214 -0.081290
Spine 47.666462 7.539020 3.598528
Head 44.526583 -14.305243 -2.460151
LeftShoulder 16.765069 -20.068768 23.698437
LeftArm 37.715347 19.106752 -27.362915
LeftForeArm 61.977354 0.000000 86.721023
LeftHand -37.689197 -0.000000 30.929071
LeftHandThumb1 -26.253704 0.000000 33.147579
RightShoulder 2.858891 36.365867 -30.479746
RightArm 21.575841 -41.097180 37.183826
RightForeArm -56.025128 0.000000 83.497374
RightHand -7.728352 -0.000000 -28.066355
RightHandThumb1 -24.326973 -0.000000 -32.862282
LeftUpLeg -139.288383 41.961243 -13.126923
LeftLeg 130.971367 -0.000000 -0.000000
LeftFoot -30.635534 -16.406977 -20.529612
LeftToeBase 6.982755 -0.000000 -0.000000
RightUpLeg -132.622631 -36.549492 5.314236
RightLeg 134.016199 -0.000000 -0.000000
RightFoot -36.149629 0.387341 20.744681
RightToeBase 3.453599 -0.000000 -0.000000
753
root -0.250787 11.813837 -7.752208 43.559487 5.214397 -0.043968
Spine 47.705439 7.479375 3.566162
Head 44.497389 -14.280894 -2.399107
LeftShoulder 16.729074 -19.974444 23.678109
LeftArm 37.753715 19.173934 -27.260471
LeftForeArm 61.818818 -0.000000 86.673849
LeftHand -37.581975 -0.000000 31.011049
LeftHandThumb1 -26.253704 0.000000 33.147579
RightShoulder 2.902616 36.521298 -30.432921
RightArm 21.527756 -41.241865 37.169701
RightForeArm -56.036337 -0.000000 83.494999
RightHand -7.688793 -0.000000 -28.035622
RightHandThumb1 -24.326973 -0.000000 -32.862282
LeftUpLeg -139.223957 41.982101 -13.138331
LeftLeg 131.011843 -0.000000 -0.000000
LeftFoot -30.630995 -16.421275 -20.477838
LeftToeBase 6.892392 -0.000000 -0.000000
RightUpLeg -132.573628 -36.611914 5.263785
RightLeg 134.038438 -0.000000 -0.000000
RightFoot -36.148317 0.414138 20.741784
RightToeBase 3.445548 -0.000000 -0.000000
